<svg xmlns="http://www.w3.org/2000/svg" width="512" height="512" viewBox="0 0 512 512" role="img" aria-label="Maermok Studio">
  <defs>
    <radialGradient id="bgGlow" cx="50%" cy="40%" r="67%">
      <stop offset="0" stop-color="#102716"/>
      <stop offset="0.58" stop-color="#06120a"/>
      <stop offset="1" stop-color="#010403"/>
    </radialGradient>
    <linearGradient id="neon" x1="154" y1="110" x2="354" y2="352" gradientUnits="userSpaceOnUse">
      <stop offset="0" stop-color="#e4ff26"/>
      <stop offset="0.5" stop-color="#8eea21"/>
      <stop offset="1" stop-color="#1fc840"/>
    </linearGradient>
    <linearGradient id="neonDark" x1="160" y1="170" x2="365" y2="356" gradientUnits="userSpaceOnUse">
      <stop offset="0" stop-color="#cfff1c"/>
      <stop offset="0.55" stop-color="#73d51d"/>
      <stop offset="1" stop-color="#129a34"/>
    </linearGradient>
    <linearGradient id="word" x1="105" y1="384" x2="407" y2="384" gradientUnits="userSpaceOnUse">
      <stop offset="0" stop-color="#ffffff"/>
      <stop offset="0.42" stop-color="#f5f7f2"/>
      <stop offset="0.5" stop-color="#8f948e"/>
      <stop offset="0.58" stop-color="#ffffff"/>
      <stop offset="1" stop-color="#d8ded7"/>
    </linearGradient>
    <filter id="softGlow" x="-30%" y="-30%" width="160%" height="160%">
      <feGaussianBlur stdDeviation="6" result="blur"/>
      <feColorMatrix in="blur" type="matrix" values="0 0 0 0 0.45 0 0 0 0 1 0 0 0 0 0.1 0 0 0 0.9 0" result="greenBlur"/>
      <feMerge>
        <feMergeNode in="greenBlur"/>
        <feMergeNode in="SourceGraphic"/>
      </feMerge>
    </filter>
    <filter id="fineGlow" x="-20%" y="-20%" width="140%" height="140%">
      <feGaussianBlur stdDeviation="2.4" result="blur"/>
      <feMerge>
        <feMergeNode in="blur"/>
        <feMergeNode in="SourceGraphic"/>
      </feMerge>
    </filter>
    <clipPath id="rounded">
      <rect width="512" height="512" rx="68"/>
    </clipPath>
  </defs>

  <g clip-path="url(#rounded)">
    <rect width="512" height="512" fill="url(#bgGlow)"/>
    <rect x="0.5" y="0.5" width="511" height="511" rx="68" fill="none" stroke="#1c4b24" stroke-opacity="0.5"/>
    <circle cx="256" cy="226" r="145" fill="#66ff22" opacity="0.08" filter="url(#softGlow)"/>

    <g fill="none" stroke="url(#neon)" stroke-linecap="round" filter="url(#softGlow)">
      <path d="M167 111c52-57 126-57 178 0" stroke-width="11"/>
      <path d="M133 278c18 45 52 76 98 88" stroke-width="11"/>
      <path d="M281 366c47-12 82-43 99-88" stroke-width="11"/>
    </g>

    <g fill="url(#neon)" filter="url(#softGlow)">
      <rect x="82" y="202" width="8" height="34" rx="4"/>
      <rect x="98" y="180" width="9" height="74" rx="4.5"/>
      <rect x="115" y="157" width="9" height="120" rx="4.5"/>
      <rect x="132" y="183" width="9" height="69" rx="4.5"/>
      <rect x="422" y="202" width="8" height="34" rx="4"/>
      <rect x="405" y="180" width="9" height="74" rx="4.5"/>
      <rect x="388" y="157" width="9" height="120" rx="4.5"/>
      <rect x="371" y="183" width="9" height="69" rx="4.5"/>
    </g>

    <g filter="url(#softGlow)">
      <path fill="url(#neonDark)" d="M151 118v168l34 47V191l72 71 72-71v142l33-47V118L257 221 151 118z"/>
      <path fill="url(#neon)" d="M151 118v168l34 47V191l72 71 72-71v142l33-47V118L257 221 151 118z" opacity="0.86"/>
      <path fill="#051007" opacity="0.92" d="M186 190v142l-35-47V118l106 103 105-103v168l-34 47V191l-71 71-71-72z"/>
      <path fill="url(#neon)" d="M151 118v168l34 47V191l72 71 72-71v142l33-47V118L257 221 151 118z" opacity="0.82"/>
    </g>

    <g filter="url(#softGlow)">
      <path fill="url(#neon)" d="M268 279l42-43v29l-30 30v52h-22v-59c0-3 4-6 10-9z"/>
      <rect x="258" y="287" width="22" height="63" rx="10" fill="url(#neon)"/>
      <circle cx="241" cy="346" r="28" fill="url(#neon)"/>
    </g>

    <g text-anchor="middle">
      <text x="256" y="410" fill="url(#word)" font-family="Arial, Helvetica, sans-serif" font-size="35" font-weight="700" letter-spacing="16" filter="url(#fineGlow)">MAERMOK</text>
      <g fill="none" stroke="url(#neon)" stroke-linecap="round" stroke-width="3">
        <path d="M119 432h31"/>
        <path d="M362 432h31"/>
      </g>
      <text x="256" y="440" fill="#72df39" font-family="Arial, Helvetica, sans-serif" font-size="20" font-weight="600" letter-spacing="18">STUDIO</text>
      <text x="256" y="469" fill="#b5bab3" font-family="Arial, Helvetica, sans-serif" font-size="10" font-weight="600" letter-spacing="9">YOUR MUSIC. YOUR SPACE.</text>
    </g>
  </g>
</svg>
